<?xml version="1.0" encoding="utf-8"?><svg viewBox="0 0 103.719 119.031" xmlns="http://www.w3.org/2000/svg" xmlns:xlink="http://www.w3.org/1999/xlink"><style>:root>svg{display:none}:root>svg:target{display:block}</style><svg preserveAspectRatio="xMidYMid" data-prefix="i9v7fm753" viewBox="0 0 70 63" id="books" xmlns="http://www.w3.org/2000/svg"><path d="M52.738 62.541L37.397 5.348v57.628H19.971V2.831h17.426v1.576L53.989.001l15.576 58.071-16.827 4.469zM34.312 5.901H23.057v54.005h11.255V5.901zm17.491-2.142L40.939 6.644l13.985 52.139 10.864-2.885L51.803 3.759zm3.87 50.089l-.796-2.966 7.396-1.965.796 2.967-7.396 1.964zm.544-16.982a1.54 1.54 0 01-1.491 1.139c-.42 0-.828-.17-1.123-.482l-4.454-4.704a1.53 1.53 0 01-.327-1.578l1.947-5.324c.171-.468.56-.824 1.042-.956.483-.131 1-.022 1.387.294l4.262 3.479a1.53 1.53 0 01.513 1.582l-1.756 6.55zm-3.293-7.863l-.877 2.399 1.902 2.009.786-2.93-1.811-1.478zm-9.172-18.798l7.396-1.964.795 2.967-7.396 1.963-.795-2.966zM27.53 27.085a1.55 1.55 0 012.518-.016l3.217 4.455a1.53 1.53 0 01.085 1.661l-3.394 5.877c-.275.477-.786.77-1.338.77h-.02a1.546 1.546 0 01-1.338-.806l-3.084-5.688a1.528 1.528 0 01.093-1.608l3.261-4.645zm1.131 8.057l1.518-2.63-1.366-1.892-1.47 2.093 1.318 2.429zm4.108 20.248h-7.806v-3.07h7.806v3.07zm-7.987-45.335h7.624v3.071h-7.624v-3.071zM.004 2.47H17.43v60.145H.004V2.47zm3.085 57.074h11.255V5.54H3.089v54.004zm6.93-20.896a1.546 1.546 0 01-1.338.771l-.021-.001a1.542 1.542 0 01-1.337-.806l-3.085-5.687a1.53 1.53 0 01.094-1.608l3.261-4.645a1.543 1.543 0 011.254-.656h.011c.496 0 .963.238 1.253.64l3.217 4.455c.353.489.386 1.138.084 1.66l-3.393 5.877zm-1.144-8.441L7.406 32.3l1.317 2.429 1.519-2.63-1.367-1.892zM4.814 9.694h7.805v3.071H4.814V9.694zm7.987 45.154H5.177v-3.07h7.624v3.07z" fill-rule="evenodd" class="apath-iob2wy0ut"/></svg><svg data-prefix="i9slnoi7h" viewBox="0 0 14 15" id="bottom-phone" xmlns="http://www.w3.org/2000/svg"><path d="M14.007 10.931a2.936 2.936 0 01-.874 1.689l-1.456 1.44a3.239 3.239 0 01-1.875.908c-1.314.174-3.522-.333-6.575-3.728C-1.573 5.901.1 3.159 1.041 2.228L2.498.789a2.747 2.747 0 011.535-.8 1.412 1.412 0 011.448.6l1.142 1.8a2.28 2.28 0 01-.469 2.588l-.417.489a.311.311 0 00-.048.4l2.806 3.122a.3.3 0 00.38-.028l.49-.407a2.664 2.664 0 011.329-.6 1.531 1.531 0 011.162.265l1.648 1.3a1.526 1.526 0 01.503 1.413zm-3.822-1.118l-.49.407a2.686 2.686 0 01-1.33.617 1.451 1.451 0 01-1.317-.426L4.241 7.29a2.169 2.169 0 01.339-2.761L5 4.04a.327.327 0 00.067-.372l-1.142-1.8a.2.2 0 00-.209-.086.4.4 0 00-.219.115L2.04 3.337c-.468.463-.908 2.529 2.637 6.473 2.962 3.294 4.8 3.45 5.447 3.364a1.02 1.02 0 00.56-.221l1.457-1.44a.407.407 0 00.125-.242.216.216 0 00-.072-.2l-1.648-1.3a.308.308 0 00-.361.042zm-.33 4.856z" fill="#e2eff9" class="bpath-itlkont4t"/></svg><svg preserveAspectRatio="xMidYMid" data-prefix="iugxcf1lb" viewBox="0 0 73 59" id="briefcase" xmlns="http://www.w3.org/2000/svg"><path d="M72.045 58.538a1.533 1.533 0 01-1.09.456l-69.214.046H1.74a1.54 1.54 0 01-1.091-.454 1.559 1.559 0 01-.452-1.098L.178 28.555a10.838 10.838 0 01-.182-1.91v-.03c0-.353.018-.719.054-1.081l.125-1.274L.164 7.576a1.549 1.549 0 011.542-1.555l23.511-.016-.003-4.435A1.547 1.547 0 0126.756.015L47.124.001h.001c.408 0 .8.163 1.09.454.289.292.452.687.452 1.099l.003 4.436 22.249-.015h.001c.409 0 .801.163 1.091.454.289.291.452.686.452 1.098l.034 49.912c0 .412-.162.807-.452 1.099zm-21.9-2.638l3.764-.002-.007-10.505-3.764.002.007 10.505zm-32.264.022l3.764-.002-.007-10.505-3.763.002.006 10.505zM45.583 3.109l-17.282.012.002 2.882 17.281-.011-.001-2.883zm23.796 5.974l-10.253.007.013 19.239-3.086.002-.013-19.239-4.304.003.014 19.238-3.086.003-.013-19.239-22.69.015.013 18.876-3.086.002-.013-18.876-4.303.003.012 18.876-3.086.002-.012-18.876-12.235.008.01 15.165.011.001-.011.117.002 3.883c.78 3.547 4.019 6.217 7.886 6.217h.006l50.912-.034c2.711-.002 5.225-1.322 6.725-3.53l.6-.884-.013-20.979zm.017 25.782a11.235 11.235 0 01-7.327 2.718l-50.912.035h-.008a11.208 11.208 0 01-7.882-3.219l.015 21.533 11.514-.008-.007-10.505-1.522.001h-.001c-.408 0-.8-.163-1.09-.454a1.559 1.559 0 01-.452-1.098l-.004-5.184 3.086-.002.002 3.63 9.892-.007-.002-3.448 3.086-.003.003 5.003c0 .412-.162.807-.451 1.099a1.54 1.54 0 01-1.091.456l-1.521.001.007 10.505 22.328-.015-.007-10.505-1.52.001h-.001a1.548 1.548 0 01-1.543-1.553l-.005-5.183 3.086-.003.003 3.63 9.892-.007-.003-3.448 3.086-.002.003 5.002a1.549 1.549 0 01-1.542 1.555l-1.521.001.008 10.505 12.415-.009-.014-21.022zm-41.822-7.807l17.866-.013.002 3.108-17.866.012-.002-3.107z" fill-rule="evenodd" class="cpath-ihdbrvlqx"/></svg><svg preserveAspectRatio="xMidYMid" data-prefix="ik2xg03ds" viewBox="0 0 73 56" id="column" xmlns="http://www.w3.org/2000/svg"><path d="M-.003 0h71.574v2.512H-.003V0zm8.481 11.56L5.215 8.388V3.473h2.498v3.849l3.861 3.752-.013.014c.701-.056 1.32-.077 1.774-.081 2.304-.019 5.317.014 8.205.049l-.03 2.512c-2.875-.035-5.873-.068-8.155-.049-2.658.023-6.057.545-7.626 1.946-1.479 1.32-1.99 3.227-1.563 5.829.274 1.665 1.472 2.574 2.429 3.043 1.929.946 4.513.929 6.283-.043 1.459-.801 1.879-2.663 1.653-4.055-.183-1.118-.911-1.827-2.226-2.165-.843-.217-1.703.159-2.181.629-.213.21-.552.635-.447 1.133.059.123.303.332.453.39.216-.025.628-.344.691-.541l-.003.015 2.461.431c-.135.78-.694 1.555-1.495 2.073-.748.484-1.55.648-2.257.462-.921-.241-2.026-1.147-2.279-2.244-.288-1.244.123-2.525 1.129-3.515 1.194-1.174 2.978-1.672 4.548-1.267 2.28.587 3.726 2.076 4.071 4.193.453 2.78-.721 5.459-2.921 6.667-1.269.696-2.794 1.045-4.335 1.045-1.466 0-2.947-.315-4.241-.95-2.099-1.029-3.448-2.767-3.797-4.891-.572-3.474.225-6.206 2.369-8.119 1.166-1.041 2.796-1.652 4.407-2.025zm8.2 44.527H14.18V27.415h2.498v28.672zm7.364-45.001c.669.008 1.331.016 1.98.022l-.025 2.513-1.984-.023.029-2.512zm3.888.039c.744.005 1.461.01 2.13.008l.001 2.513h-.047c-.663 0-1.368-.003-2.102-.009l.018-2.512zm21.669 11.783H19.25v-2.513h30.349v2.513zm-25.142 6.798h.021c2.669 0 4.839 2.183 4.839 4.866v15.689c0 2.683-2.17 4.865-4.839 4.865h-.021c-2.669 0-4.84-2.182-4.84-4.865V34.572c0-2.683 2.171-4.866 4.84-4.866zm-2.341 20.555a2.35 2.35 0 002.341 2.353h.021a2.35 2.35 0 002.341-2.353V34.572a2.35 2.35 0 00-2.341-2.353h-.021a2.35 2.35 0 00-2.341 2.353v15.689zm14.245-20.555h.022c2.668 0 4.839 2.183 4.839 4.866v15.689c0 2.683-2.171 4.865-4.839 4.865h-.022c-2.668 0-4.839-2.182-4.839-4.865V34.572c0-2.683 2.171-4.866 4.839-4.866zM34.02 50.261a2.35 2.35 0 002.341 2.353h.022a2.349 2.349 0 002.34-2.353V34.572a2.348 2.348 0 00-2.34-2.353h-.022a2.35 2.35 0 00-2.341 2.353v15.689zm14.393-20.555h.021c2.669 0 4.839 2.183 4.839 4.866v15.689c0 2.683-2.17 4.865-4.839 4.865h-.021c-2.669 0-4.84-2.182-4.84-4.865V34.572c0-2.683 2.171-4.866 4.84-4.866zm-2.341 20.555a2.35 2.35 0 002.341 2.353h.021a2.35 2.35 0 002.341-2.353V34.572a2.35 2.35 0 00-2.341-2.353h-.021a2.35 2.35 0 00-2.341 2.353v15.689zm4.747-29.866h3.37v2.513h-3.37v-2.513zm7.598 35.692h-2.498V27.415h2.498v28.672zm1.343-39.716c1.85-.794 5.194-.839 6.492 1.588 1.115 2.084.047 3.375-.464 3.833-.653.586-1.542.819-2.436.639-.86-.172-1.582-.712-1.933-1.443l2.251-1.091-.007-.012c.016.02.101.079.232.09.057.005.161.004.23-.058.107-.096.228-.205-.073-.767-.477-.892-2.309-.898-3.312-.468-.921.395-1.153 1.294-1.186 1.978-.071 1.496.73 3.184 1.786 3.764 1.62.889 3.949.877 5.796-.029.863-.422 2.356-1.421 2.675-3.361.459-2.788.064-4.445-1.362-5.717-1.815-1.62-6.159-1.656-7.586-1.668-1.755-.014-5.697.024-10.261.068-7.35.071-15.681.151-19.019.058l.069-2.512c3.292.092 11.961.009 18.926-.059 3.039-.029 5.786-.055 7.82-.065l5.457-3.795V3.473h2.498v5.188l-3.645 2.535c2.601.142 5.589.625 7.4 2.242 2.693 2.404 2.573 5.541 2.168 8.006-.372 2.263-1.808 4.113-4.045 5.21a9.393 9.393 0 01-4.108.942c-1.418 0-2.806-.322-3.98-.967-1.906-1.046-3.203-3.607-3.084-6.089.093-1.953 1.078-3.472 2.701-4.169z" fill-rule="evenodd" class="dpath-iiqbm215z"/></svg><svg preserveAspectRatio="xMidYMid" data-prefix="ij9rq1pc2" viewBox="0 0 78 67" id="document" xmlns="http://www.w3.org/2000/svg"><path d="M22.49 65.149l-.047-.154a1.271 1.271 0 01-.523.33L17 66.84a1.303 1.303 0 01-1.003-.097 1.317 1.317 0 01-.639-.781c-.041-.137-4.154-13.84-7.691-25.357a1.313 1.313 0 012.508-.772 4900.191 4900.191 0 017.316 24.108l3.658-1.127c.209-.064.417-.059.618-.022l-.048-.154 35.545-10.944-2.418-1.976-4.624 3.958.519-9.671 1.318.071-.506-.907-3.014-.051-.271-3.007-2.733-1.275.973-2.857-1.978-2.278 2.049-2.214-.882-2.886 2.771-1.188.367-2.997 3.015.044 1.551-2.588 2.736 1.268 2.469-1.732 1.985 2.272 2.959-.577.89 2.885 2.937.678-.358 2.997 2.409 1.816-1.546 2.592 1.462 2.64-2.464 1.739.053.608 1.507-1.067 4.886 6.916-5.285.045-1.122 3.769 7.207-2.219-9.852-32.082 2.508-.773 10.623 34.594L22.49 65.149zm32.317-18.853l2.181 1.782.295-2.339-1.485-1.114-2.521 1.072-.107 2 1.637-1.401zm9.685-17.6l-2.113-.488-.64-2.075-2.129.415-1.428-1.635-1.776 1.246-1.968-.912-1.117 1.862-2.169-.032-.263 2.157-1.994.854.634 2.076-1.474 1.593 1.424 1.639-.701 2.055 1.966.917.196 2.163 2.169.037 1.056 1.897 1.997-.849 1.736 1.302 1.479-1.589 2.114.482.705-2.053 2.128-.421-.19-2.164 1.773-1.251-1.051-1.899 1.111-1.864-1.732-1.307.257-2.156zm3.795 13.627l-1.219-1.725.076.86-2.958.584-.469 1.367.255-.213 1.364 1.645.744-2.499 2.207-.019zm-6.333 2.552l.248-.207-1.936-.442-1.479 1.589 1.113.141-.646 5.125 6.251-1.925-3.551-4.281zm2.103-10.994a6.947 6.947 0 01-4.914 6.554 6.913 6.913 0 01-5.301-.502 6.92 6.92 0 01-3.394-4.11 6.929 6.929 0 01.501-5.308 6.913 6.913 0 014.104-3.399 6.902 6.902 0 015.306.505l.106.056.078-.095.452.377.523.277-.058.109.092.077a6.881 6.881 0 011.481 1.715l.685 1.12-2.083 1.275 2.441.036-.019 1.313zm-3.262-2.374a4.316 4.316 0 00-.92-1.065l-.348-.29-.398-.211a4.304 4.304 0 00-3.305-.314 4.308 4.308 0 00-2.556 2.117 4.318 4.318 0 00-.313 3.307 4.31 4.31 0 002.115 2.56 4.296 4.296 0 003.302.313 4.327 4.327 0 003.062-4.082l.018-1.259-.657-1.076zm-49.234-7.614l21.979-6.767.771 2.511-21.978 6.767-.772-2.511zm32.24 6.75l-10.908 3.143-.726-2.525 10.909-3.142.725 2.524zm-30.198-.103l27.584-8.493.771 2.51-27.584 8.494-.771-2.511zm18.469 11.773l-13.571 4.179-.771-2.511 13.571-4.179.771 2.511zm-16.61-5.717l14.899-4.587.771 2.511-14.898 4.587-.772-2.511zM51.151 2.973L3.285 17.711l1.077 3.505-.014.004c.009.023.027.039.034.063.32 1.04.762 2.464 1.244 4.018.58 1.867 1.218 3.921 1.771 5.722a1.314 1.314 0 01-1.254 1.7c-.561 0-1.08-.363-1.254-.927-.552-1.799-1.189-3.85-1.768-5.715-.483-1.557-.926-2.984-1.247-4.026-.007-.024-.001-.047-.007-.071l-.013.004-1.847-6.015L50.483.43l-.116-.443.48.331.271-.083.106.343 15.23 10.509-12.248 3.525-3.055-11.639zm4.91 8.371l4.335-1.247-5.694-3.929 1.359 5.176zM7.11 34.633a1.312 1.312 0 011.621.815c.044.092.084.194.119.309a1.313 1.313 0 01-1.254 1.699c-.543 0-1.046-.34-1.236-.874a2.261 2.261 0 01-.119-.307 1.314 1.314 0 01.869-1.642z" fill-rule="evenodd" class="epath-iu9tx4ec9"/></svg><svg data-prefix="i8bbg4jdo" viewBox="0 0 16 13" id="envelope" xmlns="http://www.w3.org/2000/svg"><path d="M14.547 13H1.453A1.551 1.551 0 010 11.371V1.629A1.551 1.551 0 011.453 0h13.094A1.551 1.551 0 0116 1.629v9.742A1.551 1.551 0 0114.547 13zm-.819-11.289H2.272L8 6.13zm.672 1.59L8.378 7.93a.346.346 0 01-.054.03.688.688 0 01-.642 0l-.153-.087L1.6 3.3v7.988h12.8V3.3z" fill="#e2eff9" class="fpath-ia6ojif63"/></svg><svg preserveAspectRatio="xMidYMid" data-prefix="iw7gjt5gk" viewBox="0 0 86 69" id="gavel" xmlns="http://www.w3.org/2000/svg"><path d="M75.335 64.927l-1.834-1.989 9.915-9.178 1.834 1.989-9.915 9.178zm.981-10.092c-.009-.029-1.013-3.248-3.821-7.281-2.549-3.659-7.159-8.748-14.644-12.363l-.692 5.34c-.012.091-.053.167-.081.25 2.889 4.341 8.866 11.948 17.565 16.235l1.213.598-1.194 2.429-1.212-.597c-7.023-3.462-12.291-8.899-15.473-12.85-3.441-4.274-5.218-7.706-5.292-7.85l-.618-1.203 2.403-1.239.408.795.554-4.27-5.119 4.554a1.348 1.348 0 01-1.907-.113 1.354 1.354 0 01.113-1.911l10.524-9.365-.825 6.363.529.25c8.232 3.9 13.262 9.492 16.033 13.497 3.019 4.365 4.079 7.802 4.123 7.946l.392 1.296-2.587.785-.392-1.296zM56.701 22.712L41.668 37.011l2.595 2.639-6.691 6.606-17.944-18.244 6.692-6.605 2.217 2.253L43.569 9.361 40.85 6.597l6.692-6.605 17.944 18.243-6.691 6.606-2.094-2.129zm-30.41 2.523L23.45 28.04 37.6 42.427l2.842-2.805-14.151-14.387zm4.143.354l9.337 9.494 15.033-14.3-9.338-9.493-15.032 14.299zm31.23-7.382L47.514 3.82l-2.842 2.805 14.151 14.387 2.841-2.805zM46.161 60.005c0 .747-.605 1.353-1.351 1.353H17.381c-.746 0-1.35-.606-1.35-1.353s.604-1.353 1.35-1.353H44.81c.746 0 1.351.606 1.351 1.353zM10.628 30.333l2.419-1.207 3.225 6.487-2.419 1.207-3.225-6.487zm-7.929 8.592l1.528-2.233 6.356 4.363-1.528 2.233-6.356-4.363zm5.578 12.051H.013V48.27h8.264v2.706zm2.872 7.128l-5.562 4.537-1.706-2.099 5.561-4.537 1.707 2.099zm.688 7.076h38.615a1.352 1.352 0 010 2.706H11.837a1.352 1.352 0 110-2.706z" fill-rule="evenodd" class="gpath-iiyq4w7oc"/></svg><svg preserveAspectRatio="xMidYMid" data-prefix="ind8iq7ep" viewBox="0 0 86 70" id="handshake" xmlns="http://www.w3.org/2000/svg"><path d="M76.525 31.771a1.28 1.28 0 01-.901.396h-.025c-.332 0-.651-.129-.891-.36l-2.048-1.981c-.063.305-.126.638-.187.971-.337 1.828-.757 4.103-1.923 5.676-1.18 1.592-4.457 4.462-4.596 4.583l-.082.071c.341.319.625.593.765.758 1.616 1.908 3.14 4.016 2.487 6.947-.092.412-1.28 2.992-2.855 3.968.127 1.479-.434 3.029-1.646 4.3-1.032 1.084-2.322 1.505-3.487 1.583l-.248.305c-.143 1.263-.872 2.566-2.176 3.641-1.187.976-2.499 1.469-3.69 1.469h-.038c-.265 1.726-1.59 3.182-2.647 3.906-.88.604-2.116.868-3.393.868-1.764 0-3.608-.504-4.707-1.318-1.209-.896-3.973-3.217-4.09-3.315l-.381-.32a4.796 4.796 0 01-3.401 1.404 4.795 4.795 0 01-3.417-1.417 4.8 4.8 0 01-1.415-3.42c0-.372.053-.734.134-1.087a4.866 4.866 0 01-1.088.135 4.796 4.796 0 01-3.417-1.418 4.796 4.796 0 01-1.415-3.419c0-.168.031-.329.048-.494-.165.017-.327.049-.495.049a4.794 4.794 0 01-3.416-1.418 4.801 4.801 0 01-1.416-3.419 4.872 4.872 0 01.265-1.519 4.783 4.783 0 01-1.519.266 4.796 4.796 0 01-3.417-1.418 4.796 4.796 0 01-1.415-3.419c0-1.292.503-2.505 1.416-3.419l1.071-1.071-.903-2.427-1.653 2.15a1.284 1.284 0 01-1.719.29L0 30.588l1.405-2.145 11.601 7.608 1.905-2.477-.087-.234.374-.139 14.068-18.29-10.533-7.444 1.479-2.095 11.624 8.214a1.282 1.282 0 01.276 1.83l-1.286 1.672c1.884.248 4.716.763 6.275 1.736 5.417-5.075 6.958-5.098 7.479-5.102 2.187-.016 6.153-.542 7.646-.74l.365-.048c.411-.053 1.096-.609 1.512-1.051l-.638-.617a1.283 1.283 0 01-.108-1.727l7.687-9.546 1.996 1.609-6.951 8.634 19.475 18.83 7.82-8.179 1.853 1.773-8.712 9.111zM34.761 62.092c.429.43.998.666 1.604.666.605 0 1.174-.236 1.602-.664l2.01-2.01c.43-.429.666-.999.666-1.604a2.253 2.253 0 00-.663-1.605 2.253 2.253 0 00-1.606-.667c-.606 0-1.175.236-1.603.664l-2.01 2.01a2.26 2.26 0 00-.665 1.605c0 .606.236 1.176.665 1.605zm-5.787-5.79c.43.43.999.666 1.605.666.605 0 1.174-.236 1.602-.664l2.01-2.01c.429-.428.666-.998.666-1.604 0-.606-.236-1.176-.664-1.605a2.248 2.248 0 00-1.605-.666 2.25 2.25 0 00-1.603.663l-2.01 2.01a2.264 2.264 0 00-.665 1.606c0 .606.236 1.176.664 1.604zm-5.278-5.281c.43.429.999.666 1.604.666.606 0 1.175-.236 1.603-.664l2.01-2.01c.429-.429.666-.999.666-1.605s-.236-1.176-.664-1.605a2.254 2.254 0 00-1.605-.666 2.25 2.25 0 00-1.603.664l-2.01 2.01a2.252 2.252 0 00-.665 1.605c0 .606.236 1.176.664 1.605zM17.61 44.93c.429.431.998.667 1.604.667.605 0 1.174-.236 1.602-.664l2.011-2.01a2.26 2.26 0 00.666-1.605 2.26 2.26 0 00-.664-1.605 2.252 2.252 0 00-1.606-.666c-.606 0-1.175.236-1.603.664l-2.01 2.01a2.26 2.26 0 00-.665 1.605c0 .606.236 1.176.665 1.604zm11.387-25.464L17.809 34.011l1.14 3.063a4.79 4.79 0 012.274-.593 4.8 4.8 0 013.42 1.42 4.804 4.804 0 011.413 3.418c0 .527-.104 1.033-.265 1.518a4.81 4.81 0 011.519-.265c1.292 0 2.507.504 3.419 1.419a4.8 4.8 0 011.413 3.419c0 .167-.031.328-.048.492.165-.017.326-.049.494-.049a4.8 4.8 0 013.42 1.42 4.808 4.808 0 011.413 3.418c0 .372-.054.733-.135 1.087a4.809 4.809 0 011.088-.135 4.8 4.8 0 013.42 1.419 4.802 4.802 0 011.413 3.419 4.794 4.794 0 01-1.419 3.418l-.2.201.208.174c.028.024 2.821 2.369 3.967 3.218 1.204.892 4.078 1.114 5.125.396.684-.469 1.441-1.37 1.563-2.186.051-.34-.016-.604-.218-.858a1.263 1.263 0 01-.208-.404l-7.403-6.204 1.647-1.967 8.66 7.259c.653.043 1.493-.336 2.154-.881.786-.646 1.717-1.911 1.063-2.747-.053-.068-.08-.146-.118-.221l-8.229-6.72 1.621-1.988 8.71 7.114c.61.11 1.811.113 2.637-.755.873-.916 1.16-1.972.82-2.882-.04-.05-.076-.116-.115-.173l-8.079-6.449 1.599-2.005 7.568 6.041c.283.057.547.208.74.443.51-.561 1.169-1.63 1.33-2.07.344-1.614-.389-2.85-1.949-4.691-1.074-1.267-11.666-9.943-19.025-15.873l-6.313 5.214-.415.343c-1.197.989-2.846 1.797-4.521 1.797-1.084 0-2.178-.338-3.168-1.182-1.591-1.358-2.756-4.041-1.557-6.725.543-1.218 3.039-3.986 5.471-6.412-1.467-.613-4.252-1.075-6.156-1.24zm26.954-5.797c-.497.524-1.687 1.634-3.029 1.809l-.359.048c-1.676.221-5.595.741-7.944.761-.598.097-2.875 1.593-6.749 5.342-3.323 3.218-5.567 5.906-5.848 6.535-.661 1.48-.007 2.97.88 3.727 1.695 1.445 3.958-.281 4.394-.641l.415-.343 7.02-5.798.72-.896.184.149 1.284-1.061.988-.816 1.633 1.978-.989.817-.877.724c3.332 2.688 11.815 9.56 16.267 13.405l.327-.286c.889-.776 3.38-3.04 4.223-4.178.812-1.095 1.172-3.046 1.461-4.613.182-.991.34-1.846.602-2.456l.026-.061-14.629-14.146z" fill-rule="evenodd" class="hpath-iceqql18s"/></svg><svg data-prefix="iquh4mhpv" viewBox="0 0 13 15" id="local" xmlns="http://www.w3.org/2000/svg"><path d="M6.5 8.631a.775.775 0 100-1.55.93.93 0 11.94-.93.79.79 0 001.58 0 2.52 2.52 0 10-2.52 2.48zm-5.94.413l4.76 5.225a1.3 1.3 0 001.18.737 1.32 1.32 0 001.18-.738l4.76-5.218a.415.415 0 01.04-.1 6.318 6.318 0 00.53-2.534 6.511 6.511 0 00-13.02 0A6.223 6.223 0 00.5 8.897a.467.467 0 00.06.147zM6.5 1.55a4.869 4.869 0 014.51 6.848.034.034 0 00-.01.029l-4.5 4.678L2 8.425s0-.007-.01-.008a.133.133 0 00-.03-.081 4.837 4.837 0 01-.39-1.916A4.9 4.9 0 016.5 1.55z" fill="#e2eff9" class="ipath-im98oyppr"/></svg><svg preserveAspectRatio="xMidYMid" data-prefix="i85kcjg3s" viewBox="0 0 64 79" id="pen" xmlns="http://www.w3.org/2000/svg"><path d="M25.13 63.188l1.233-2.373c4.033 2.08 2.751 4.902 1.904 6.77-.06.13-.12.263-.179.397-1.143 2.565-3.055 5.392-3.136 5.511l-2.222-1.497c.018-.027 1.861-2.753 2.906-5.098l.186-.414c.36-.791.699-1.539.657-2.019-.035-.404-.489-.833-1.349-1.277zM63.507 8.842a1.338 1.338 0 01-1.458 1.208 1.338 1.338 0 01-1.214-1.452c.153-1.662.24-3.377-.061-4.948L50.422 13.698v.061h-.063l-3.943 3.828h11.758c.142-.281.447-.906.803-1.778a1.345 1.345 0 011.749-.733 1.335 1.335 0 01.736 1.741c-.548 1.34-.993 2.168-1.011 2.202a1.326 1.326 0 01-.276.343v.897H43.663l-3.654 3.546 14.499-.125h.012c.736 0 1.335.591 1.341 1.325a1.338 1.338 0 01-1.329 1.347l-16.783.145h-.011c-.148 0-.284-.039-.416-.083l-3.066 2.976 12.915.29.868-.865a1.345 1.345 0 011.897 0 1.331 1.331 0 010 1.889l-1.016 1.013c-.048.079-.095.159-.16.228-.339.36-8.398 8.803-16.226 8.908l-.15.001c-2.683 0-5.021-.976-6.953-2.899L18.39 44.79h6.829c.741 0 1.342.598 1.342 1.336v6.433c0 .738-.601 1.336-1.342 1.336h-.492c.062.455.354.916.902 1.374 1.095.915 2.244 1.239 3.461 1.582 1.759.496 3.753 1.058 5.218 3.472 1.687 2.638 1.114 6.355-1.703 11.05-1.962 3.27-4.315 5.835-4.414 5.943a1.341 1.341 0 01-.988.432h-.021l-9.985-.16c-.016.001-.03.009-.047.009h-.027c-.075-.002-7.471-.151-8.857-.151-.52 0-1.045-.146-2.639-1.978a32.006 32.006 0 01-2.856-3.867 1.333 1.333 0 01.426-1.841 1.344 1.344 0 011.848.425c1.399 2.23 2.99 4.031 3.614 4.591 1.539.014 5.484.089 7.42.127v-.006l10.532.169c2.461-2.822 7.604-9.941 5.429-13.316l-.02-.033c-.92-1.522-2.069-1.846-3.66-2.294-1.369-.386-2.92-.824-4.455-2.107-1.442-1.205-1.841-2.462-1.881-3.421h-8.218c-.313 3.03-3.228 4.018-5.599 4.819-3.161 1.069-5.109 1.914-5.503 4.634a4.24 4.24 0 00-.034.784 1.34 1.34 0 01-1.281 1.394l-.06.001c-.714 0-1.307-.56-1.339-1.278-.02-.443 0-.875.059-1.282.657-4.54 4.494-5.836 7.296-6.783 2.333-.788 3.47-1.282 3.74-2.307a1.33 1.33 0 01-1.255-1.318v-6.433c0-.738.601-1.336 1.342-1.336h3.374l9.394-9.118c-.682-1.671-.869-3.758-.517-6.189.484-3.351 1.926-7.113 4.168-10.879 3.13-5.255 7.456-9.819 12.346-13.07v-.209h.334c.609-.396 1.222-.78 1.847-1.134C48.417.628 55.234-.695 61.83.367c.461.074.849.38 1.027.81 1.023 2.474.872 5.253.65 7.665zm-50.994 38.62v3.761h11.365v-3.761H12.513zm19.871-9.28l.109-.001c4.415-.057 9.206-3.519 11.973-5.889l-12.747-.287c-.046-.001-.084-.023-.128-.028l-4.235 4.11c1.423 1.404 3.068 2.095 5.028 2.095zm7.553-29.338c-3.89 2.855-7.354 6.615-10.038 11.123-2.036 3.418-3.393 6.933-3.821 9.897-.204 1.407-.193 2.661.02 3.713l13.839-13.432V8.844zm7.802-4.281a32.102 32.102 0 00-5.12 2.486v10.492l5.12-4.97V4.563zm2.683-.866v6.27l7.47-7.25c-2.496-.039-5.005.307-7.47.98zM2.257 66.373h.014c.578 0 1.073.366 1.26.879l.007.015c.09.179.14.381.14.595v.002a1.338 1.338 0 01-1.34 1.336h-.001c-.95 0-1.402-.882-1.408-1.478v-.014c0-.731.592-1.328 1.328-1.335zM61.121 13.91a1.335 1.335 0 01-.955-1.632c.041-.155.081-.312.12-.471a1.342 1.342 0 012.606.634c-.043.174-.087.347-.132.518a1.341 1.341 0 01-1.639.951z" fill-rule="evenodd" class="jpath-ihdrbdr1d"/></svg><svg preserveAspectRatio="xMidYMid" data-prefix="iqi8qbo22" viewBox="0 0 103.719 119.031" id="phone" xmlns="http://www.w3.org/2000/svg"><path d="M99.137 30.104a4.392 4.392 0 00.948-6.129 4.369 4.369 0 00-6.115-.951 4.392 4.392 0 00-.948 6.129 4.369 4.369 0 006.115.951zm-12.362 9.062a4.393 4.393 0 00.949-6.13 4.369 4.369 0 00-6.115-.95 4.393 4.393 0 00-.949 6.129 4.37 4.37 0 006.115.951zm-12.361 9.061a4.392 4.392 0 00.949-6.129 4.37 4.37 0 00-6.115-.95 4.393 4.393 0 00-.949 6.129 4.369 4.369 0 006.115.95zm20.461 57.945c-.023-.098-.063-.193-.095-.289-.034-.098-.061-.197-.103-.292-.037-.079-.087-.153-.131-.23-.059-.105-.114-.212-.186-.312-.008-.01-.013-.023-.021-.034-.055-.074-.122-.132-.182-.2-.062-.069-.114-.145-.183-.209L80.152 91.59a3.122 3.122 0 00-4.419.138 3.139 3.139 0 00.138 4.429l11.04 10.395c-5.941 4.022-11.083 6.211-14.691 6.211h-.002c-2.816 0-4.756-1.141-4.759-1.141a3.217 3.217 0 00-.24-.142c-12.614-6.752-27.256-19.477-37.3-32.419l-1.035-1.333c-10.06-12.953-18.772-30.3-22.194-44.193a3.218 3.218 0 00-.054-.192c-.033-.106-.798-2.629-.053-4.689 1.366-3.779 3.9-7.831 7.37-11.867l8.33 13.511a3.12 3.12 0 004.302 1.018 3.137 3.137 0 001.015-4.312L17.286 10.275a3.09 3.09 0 00-.601-.692c-.042-.046-.074-.098-.119-.142a3.117 3.117 0 00-4.419.046C6.582 15.183 2.733 20.913.705 26.519c-1.33 3.679-.421 7.412-.063 8.601 3.63 14.665 12.773 32.89 23.308 46.455l1.034 1.333c10.522 13.556 25.909 26.917 39.219 34.06.731.436 3.741 2.06 8.013 2.061h.003c5.714 0 12.943-3.24 21.485-9.63.085-.063.152-.139.228-.209.059-.054.125-.097.18-.156.01-.01.016-.022.025-.032.084-.091.151-.192.222-.291.051-.07.108-.137.152-.21.058-.095.099-.197.145-.297.04-.086.086-.168.118-.256.035-.097.053-.198.078-.298.024-.095.055-.188.069-.285.017-.107.016-.216.021-.325.005-.091.017-.18.013-.271-.004-.111-.026-.222-.042-.333-.013-.088-.018-.177-.038-.264zm5.018-17.705c-3.308-4.137-14.49-13.568-17.344-15.899-2.426-1.982-4.71-2.183-6.199-2.004-3.123.377-5.22 2.595-6.174 3.862-.915 1.151-2.534 3.165-3.104 3.834-3.761 4.423-6.381 2.95-8.141 1.832-4.533-3.726-9.182-9.348-13.538-14.893a2.897 2.897 0 00-.167-.221l-.027-.038a3.159 3.159 0 00-.153-.193c-4.304-5.605-8.615-11.516-11.112-16.853-.656-1.974-1.456-4.867 3.755-7.448.087-.041.226-.097.403-.173 1.525-.645 5.094-2.155 7.431-4.492 2.751-2.753 3.414-6.418 1.772-9.803-3.197-6.596-9.814-17.085-13.151-21.7C30.352-.966 24.79-.8 21.236 1.566l3.449 5.225c1.094-.729 2.747-1.119 4.397 1.163 3.127 4.326 9.587 14.564 12.591 20.762.35.722.524 1.54-.566 2.631-1.474 1.474-4.359 2.695-5.445 3.154-.339.143-.589.253-.726.321-4.684 2.319-9.679 6.845-6.873 15.231.037.108.079.216.127.321 2.761 5.97 7.393 12.327 11.989 18.307l.074.093c.039.056.079.111.121.164 4.655 5.931 9.665 11.989 14.754 16.13.093.076.191.147.292.211 7.446 4.749 13.034 1.014 16.409-2.954.68-.799 2.473-3.036 3.233-3.991a4.41 4.41 0 00.083-.108c.608-.806 1.374-1.372 1.953-1.442.413-.044.92.166 1.501.64 4.439 3.627 14.151 12.038 16.485 15.048.081.106.17.206.264.3 2.991 2.98 2.059 4.765 1.753 5.352a3.136 3.136 0 001.321 4.228 3.123 3.123 0 004.218-1.324c1.006-1.927 2.735-6.987-2.747-12.561zm-37.84-31.178a4.393 4.393 0 00.949-6.129 4.37 4.37 0 00-6.115-.951 4.392 4.392 0 00-.949 6.129 4.368 4.368 0 006.115.951z" fill-rule="evenodd" class="kpath-ii8g1tytv"/></svg><svg data-prefix="imkqrd4f3" viewBox="0 0 16.969 15" id="telegram" xmlns="http://www.w3.org/2000/svg"><path data-name="4Telegram.svg" d="M15.845.128L.624 6.147c-.832.251-.806 1.11-.19 1.316l3.814 1.244 1.459 4.672c.177.511.322.7.625.708a1 1 0 00.771-.422c.387-.379.977-.977 1.909-1.923l3.966 3.061c.73.42 1.257.2 1.439-.708l2.487-12.849C17.171.13 16.543-.2 15.845.128zm-11 8.293l8.67-5.682c.428-.3.562.035.369.266l-7.2 6.76-.369 3.374z" fill-rule="evenodd" class="lpath-ia2hb7vh0"/></svg><svg data-prefix="i487npo8n" viewBox="0 0 15.969 10" id="vk" xmlns="http://www.w3.org/2000/svg"><path data-name="4Vk.svg" d="M7.7 0a4.848 4.848 0 00-2 .218c-.274.144-.484.47-.356.486a1.069 1.069 0 01.713.392 2.7 2.7 0 01.237 1.178s.137 2.25-.334 2.533c-.324.192-.766-.2-1.725-1.988A17.535 17.535 0 013.377.882a.74.74 0 00-.2-.287.976.976 0 00-.37-.164L.52.446A.747.747 0 00.055.62a.565.565 0 00-.009.44s1.789 4.543 3.816 6.832a5.255 5.255 0 003.966 1.962h.958a.777.777 0 00.433-.2.8.8 0 00.133-.457s-.019-1.391.575-1.6 1.337 1.347 2.136 1.941a1.434 1.434 0 001.068.352l2.136-.035a.647.647 0 00.584-1.029 7.576 7.576 0 00-1.583-1.993c-1.343-1.347-1.164-1.129.451-3.462.981-1.422 1.374-2.29 1.251-2.666a.885.885 0 00-.84-.258l-2.406.015a.514.514 0 00-.31.06.719.719 0 00-.21.282 16.111 16.111 0 01-.89 2.036c-1.068 1.971-1.5 2.081-1.674 1.957-.407-.287-.306-1.15-.306-1.759 0-1.917.27-2.71-.52-2.918A3.738 3.738 0 007.7 0zm0 0" fill-rule="evenodd" class="mpath-ih9ax8r1s"/></svg><svg data-prefix="i7ukktuir" viewBox="0 0 16 11" id="youtube" xmlns="http://www.w3.org/2000/svg"><path data-name="4Youtube.svg" d="M15.726 1.776a2.011 2.011 0 00-1.729-1.55 82.028 82.028 0 00-11.98 0 2.009 2.009 0 00-1.729 1.55 24.991 24.991 0 000 7.461 2.011 2.011 0 001.729 1.55 82.417 82.417 0 0011.981 0 2.011 2.011 0 001.729-1.55 25.124 25.124 0 00-.001-7.461zm-9.4 5.881V3.282l4.229 2.188z" fill-rule="evenodd" class="npath-i2e68yz4e"/></svg></svg>