<svg xmlns="http://www.w3.org/2000/svg" preserveAspectRatio="xMidYMid" width="70" height="63" viewBox="0 0 70 63" data-prefix="i9v7fm753"><path d="M52.738 62.541L37.397 5.348v57.628H19.971V2.831h17.426v1.576L53.989.001l15.576 58.071-16.827 4.469zM34.312 5.901H23.057v54.005h11.255V5.901zm17.491-2.142L40.939 6.644l13.985 52.139 10.864-2.885L51.803 3.759zm3.87 50.089l-.796-2.966 7.396-1.965.796 2.967-7.396 1.964zm.544-16.982a1.54 1.54 0 0 1-1.491 1.139c-.42 0-.828-.17-1.123-.482l-4.454-4.704a1.53 1.53 0 0 1-.327-1.578l1.947-5.324c.171-.468.56-.824 1.042-.956.483-.131 1-.022 1.387.294l4.262 3.479a1.53 1.53 0 0 1 .513 1.582l-1.756 6.55zm-3.293-7.863l-.877 2.399 1.902 2.009.786-2.93-1.811-1.478zm-9.172-18.798l7.396-1.964.795 2.967-7.396 1.963-.795-2.966zM27.53 27.085a1.55 1.55 0 0 1 2.518-.016l3.217 4.455a1.53 1.53 0 0 1 .085 1.661l-3.394 5.877c-.275.477-.786.77-1.338.77h-.02a1.546 1.546 0 0 1-1.338-.806l-3.084-5.688a1.528 1.528 0 0 1 .093-1.608l3.261-4.645zm1.131 8.057l1.518-2.63-1.366-1.892-1.47 2.093 1.318 2.429zm4.108 20.248h-7.806v-3.07h7.806v3.07zm-7.987-45.335h7.624v3.071h-7.624v-3.071zM.004 2.47H17.43v60.145H.004V2.47zm3.085 57.074h11.255V5.54H3.089v54.004zm6.93-20.896a1.546 1.546 0 0 1-1.338.771l-.021-.001a1.542 1.542 0 0 1-1.337-.806l-3.085-5.687a1.53 1.53 0 0 1 .094-1.608l3.261-4.645a1.543 1.543 0 0 1 1.254-.656h.011c.496 0 .963.238 1.253.64l3.217 4.455c.353.489.386 1.138.084 1.66l-3.393 5.877zm-1.144-8.441L7.406 32.3l1.317 2.429 1.519-2.63-1.367-1.892zM4.814 9.694h7.805v3.071H4.814V9.694zm7.987 45.154H5.177v-3.07h7.624v3.07z" fill-rule="evenodd" class="path-iob2wy0ut"></path></svg>