<svg xmlns="http://www.w3.org/2000/svg" width="14" height="15" viewBox="0 0 14 15" data-prefix="i9slnoi7h"><path d="M14.007 10.931a2.936 2.936 0 0 1-.874 1.689l-1.456 1.44a3.239 3.239 0 0 1-1.875.908c-1.314.174-3.522-.333-6.575-3.728C-1.573 5.901.1 3.159 1.041 2.228L2.498.789a2.747 2.747 0 0 1 1.535-.8 1.412 1.412 0 0 1 1.448.6l1.142 1.8a2.28 2.28 0 0 1-.469 2.588l-.417.489a.311.311 0 0 0-.048.4l2.806 3.122a.3.3 0 0 0 .38-.028l.49-.407a2.664 2.664 0 0 1 1.329-.6 1.531 1.531 0 0 1 1.162.265l1.648 1.3a1.526 1.526 0 0 1 .503 1.413zm-3.822-1.118l-.49.407a2.686 2.686 0 0 1-1.33.617 1.451 1.451 0 0 1-1.317-.426L4.241 7.29a2.169 2.169 0 0 1 .339-2.761L5 4.04a.327.327 0 0 0 .067-.372l-1.142-1.8a.2.2 0 0 0-.209-.086.4.4 0 0 0-.219.115L2.04 3.337c-.468.463-.908 2.529 2.637 6.473 2.962 3.294 4.8 3.45 5.447 3.364a1.02 1.02 0 0 0 .56-.221l1.457-1.44a.407.407 0 0 0 .125-.242.216.216 0 0 0-.072-.2l-1.648-1.3a.308.308 0 0 0-.361.042zm-.33 4.856z" fill="#e2eff9" class="path-itlkont4t"></path></svg>