<svg xmlns="http://www.w3.org/2000/svg" preserveAspectRatio="xMidYMid" width="73" height="59" viewBox="0 0 73 59" data-prefix="iugxcf1lb"><path d="M72.045 58.538a1.533 1.533 0 0 1-1.09.456l-69.214.046H1.74a1.54 1.54 0 0 1-1.091-.454 1.559 1.559 0 0 1-.452-1.098L.178 28.555a10.838 10.838 0 0 1-.182-1.91v-.03c0-.353.018-.719.054-1.081l.125-1.274L.164 7.576a1.549 1.549 0 0 1 1.542-1.555l23.511-.016-.003-4.435A1.547 1.547 0 0 1 26.756.015L47.124.001h.001c.408 0 .8.163 1.09.454.289.292.452.687.452 1.099l.003 4.436 22.249-.015h.001c.409 0 .801.163 1.091.454.289.291.452.686.452 1.098l.034 49.912c0 .412-.162.807-.452 1.099zm-21.9-2.638l3.764-.002-.007-10.505-3.764.002.007 10.505zm-32.264.022l3.764-.002-.007-10.505-3.763.002.006 10.505zM45.583 3.109l-17.282.012.002 2.882 17.281-.011-.001-2.883zm23.796 5.974l-10.253.007.013 19.239-3.086.002-.013-19.239-4.304.003.014 19.238-3.086.003-.013-19.239-22.69.015.013 18.876-3.086.002-.013-18.876-4.303.003.012 18.876-3.086.002-.012-18.876-12.235.008.01 15.165.011.001-.011.117.002 3.883c.78 3.547 4.019 6.217 7.886 6.217h.006l50.912-.034c2.711-.002 5.225-1.322 6.725-3.53l.6-.884-.013-20.979zm.017 25.782a11.235 11.235 0 0 1-7.327 2.718l-50.912.035h-.008a11.208 11.208 0 0 1-7.882-3.219l.015 21.533 11.514-.008-.007-10.505-1.522.001h-.001c-.408 0-.8-.163-1.09-.454a1.559 1.559 0 0 1-.452-1.098l-.004-5.184 3.086-.002.002 3.63 9.892-.007-.002-3.448 3.086-.003.003 5.003c0 .412-.162.807-.451 1.099a1.54 1.54 0 0 1-1.091.456l-1.521.001.007 10.505 22.328-.015-.007-10.505-1.52.001h-.001a1.548 1.548 0 0 1-1.543-1.553l-.005-5.183 3.086-.003.003 3.63 9.892-.007-.003-3.448 3.086-.002.003 5.002a1.549 1.549 0 0 1-1.542 1.555l-1.521.001.008 10.505 12.415-.009-.014-21.022zm-41.822-7.807l17.866-.013.002 3.108-17.866.012-.002-3.107z" fill-rule="evenodd" class="path-ihdbrvlqx"></path></svg>