<svg xmlns="http://www.w3.org/2000/svg" preserveAspectRatio="xMidYMid" width="73" height="56" viewBox="0 0 73 56" data-prefix="ik2xg03ds"><path d="M-.003 0h71.574v2.512H-.003V0zm8.481 11.56L5.215 8.388V3.473h2.498v3.849l3.861 3.752-.013.014c.701-.056 1.32-.077 1.774-.081 2.304-.019 5.317.014 8.205.049l-.03 2.512c-2.875-.035-5.873-.068-8.155-.049-2.658.023-6.057.545-7.626 1.946-1.479 1.32-1.99 3.227-1.563 5.829.274 1.665 1.472 2.574 2.429 3.043 1.929.946 4.513.929 6.283-.043 1.459-.801 1.879-2.663 1.653-4.055-.183-1.118-.911-1.827-2.226-2.165-.843-.217-1.703.159-2.181.629-.213.21-.552.635-.447 1.133.059.123.303.332.453.39.216-.025.628-.344.691-.541l-.003.015 2.461.431c-.135.78-.694 1.555-1.495 2.073-.748.484-1.55.648-2.257.462-.921-.241-2.026-1.147-2.279-2.244-.288-1.244.123-2.525 1.129-3.515 1.194-1.174 2.978-1.672 4.548-1.267 2.28.587 3.726 2.076 4.071 4.193.453 2.78-.721 5.459-2.921 6.667-1.269.696-2.794 1.045-4.335 1.045-1.466 0-2.947-.315-4.241-.95-2.099-1.029-3.448-2.767-3.797-4.891-.572-3.474.225-6.206 2.369-8.119 1.166-1.041 2.796-1.652 4.407-2.025zm8.2 44.527H14.18V27.415h2.498v28.672zm7.364-45.001c.669.008 1.331.016 1.98.022l-.025 2.513-1.984-.023.029-2.512zm3.888.039c.744.005 1.461.01 2.13.008l.001 2.513h-.047c-.663 0-1.368-.003-2.102-.009l.018-2.512zm21.669 11.783H19.25v-2.513h30.349v2.513zm-25.142 6.798h.021c2.669 0 4.839 2.183 4.839 4.866v15.689c0 2.683-2.17 4.865-4.839 4.865h-.021c-2.669 0-4.84-2.182-4.84-4.865V34.572c0-2.683 2.171-4.866 4.84-4.866zm-2.341 20.555a2.35 2.35 0 0 0 2.341 2.353h.021a2.35 2.35 0 0 0 2.341-2.353V34.572a2.35 2.35 0 0 0-2.341-2.353h-.021a2.35 2.35 0 0 0-2.341 2.353v15.689zm14.245-20.555h.022c2.668 0 4.839 2.183 4.839 4.866v15.689c0 2.683-2.171 4.865-4.839 4.865h-.022c-2.668 0-4.839-2.182-4.839-4.865V34.572c0-2.683 2.171-4.866 4.839-4.866zM34.02 50.261a2.35 2.35 0 0 0 2.341 2.353h.022a2.349 2.349 0 0 0 2.34-2.353V34.572a2.348 2.348 0 0 0-2.34-2.353h-.022a2.35 2.35 0 0 0-2.341 2.353v15.689zm14.393-20.555h.021c2.669 0 4.839 2.183 4.839 4.866v15.689c0 2.683-2.17 4.865-4.839 4.865h-.021c-2.669 0-4.84-2.182-4.84-4.865V34.572c0-2.683 2.171-4.866 4.84-4.866zm-2.341 20.555a2.35 2.35 0 0 0 2.341 2.353h.021a2.35 2.35 0 0 0 2.341-2.353V34.572a2.35 2.35 0 0 0-2.341-2.353h-.021a2.35 2.35 0 0 0-2.341 2.353v15.689zm4.747-29.866h3.37v2.513h-3.37v-2.513zm7.598 35.692h-2.498V27.415h2.498v28.672zm1.343-39.716c1.85-.794 5.194-.839 6.492 1.588 1.115 2.084.047 3.375-.464 3.833-.653.586-1.542.819-2.436.639-.86-.172-1.582-.712-1.933-1.443l2.251-1.091-.007-.012c.016.02.101.079.232.09.057.005.161.004.23-.058.107-.096.228-.205-.073-.767-.477-.892-2.309-.898-3.312-.468-.921.395-1.153 1.294-1.186 1.978-.071 1.496.73 3.184 1.786 3.764 1.62.889 3.949.877 5.796-.029.863-.422 2.356-1.421 2.675-3.361.459-2.788.064-4.445-1.362-5.717-1.815-1.62-6.159-1.656-7.586-1.668-1.755-.014-5.697.024-10.261.068-7.35.071-15.681.151-19.019.058l.069-2.512c3.292.092 11.961.009 18.926-.059 3.039-.029 5.786-.055 7.82-.065l5.457-3.795V3.473h2.498v5.188l-3.645 2.535c2.601.142 5.589.625 7.4 2.242 2.693 2.404 2.573 5.541 2.168 8.006-.372 2.263-1.808 4.113-4.045 5.21a9.393 9.393 0 0 1-4.108.942c-1.418 0-2.806-.322-3.98-.967-1.906-1.046-3.203-3.607-3.084-6.089.093-1.953 1.078-3.472 2.701-4.169z" fill-rule="evenodd" class="path-iiqbm215z"></path></svg>