<svg xmlns="http://www.w3.org/2000/svg" preserveAspectRatio="xMidYMid" width="78" height="67" viewBox="0 0 78 67" data-prefix="ij9rq1pc2"><path d="M22.49 65.149l-.047-.154a1.271 1.271 0 0 1-.523.33L17 66.84a1.303 1.303 0 0 1-1.003-.097 1.317 1.317 0 0 1-.639-.781c-.041-.137-4.154-13.84-7.691-25.357a1.313 1.313 0 0 1 2.508-.772 4900.191 4900.191 0 0 1 7.316 24.108l3.658-1.127c.209-.064.417-.059.618-.022l-.048-.154 35.545-10.944-2.418-1.976-4.624 3.958.519-9.671 1.318.071-.506-.907-3.014-.051-.271-3.007-2.733-1.275.973-2.857-1.978-2.278 2.049-2.214-.882-2.886 2.771-1.188.367-2.997 3.015.044 1.551-2.588 2.736 1.268 2.469-1.732 1.985 2.272 2.959-.577.89 2.885 2.937.678-.358 2.997 2.409 1.816-1.546 2.592 1.462 2.64-2.464 1.739.053.608 1.507-1.067 4.886 6.916-5.285.045-1.122 3.769 7.207-2.219-9.852-32.082 2.508-.773 10.623 34.594L22.49 65.149zm32.317-18.853l2.181 1.782.295-2.339-1.485-1.114-2.521 1.072-.107 2 1.637-1.401zm9.685-17.6l-2.113-.488-.64-2.075-2.129.415-1.428-1.635-1.776 1.246-1.968-.912-1.117 1.862-2.169-.032-.263 2.157-1.994.854.634 2.076-1.474 1.593 1.424 1.639-.701 2.055 1.966.917.196 2.163 2.169.037 1.056 1.897 1.997-.849 1.736 1.302 1.479-1.589 2.114.482.705-2.053 2.128-.421-.19-2.164 1.773-1.251-1.051-1.899 1.111-1.864-1.732-1.307.257-2.156zm3.795 13.627l-1.219-1.725.076.86-2.958.584-.469 1.367.255-.213 1.364 1.645.744-2.499 2.207-.019zm-6.333 2.552l.248-.207-1.936-.442-1.479 1.589 1.113.141-.646 5.125 6.251-1.925-3.551-4.281zm2.103-10.994a6.947 6.947 0 0 1-4.914 6.554 6.913 6.913 0 0 1-5.301-.502 6.92 6.92 0 0 1-3.394-4.11 6.929 6.929 0 0 1 .501-5.308 6.913 6.913 0 0 1 4.104-3.399 6.902 6.902 0 0 1 5.306.505l.106.056.078-.095.452.377.523.277-.058.109.092.077a6.881 6.881 0 0 1 1.481 1.715l.685 1.12-2.083 1.275 2.441.036-.019 1.313zm-3.262-2.374a4.316 4.316 0 0 0-.92-1.065l-.348-.29-.398-.211a4.304 4.304 0 0 0-3.305-.314 4.308 4.308 0 0 0-2.556 2.117 4.318 4.318 0 0 0-.313 3.307 4.31 4.31 0 0 0 2.115 2.56 4.296 4.296 0 0 0 3.302.313 4.327 4.327 0 0 0 3.062-4.082l.018-1.259-.657-1.076zm-49.234-7.614l21.979-6.767.771 2.511-21.978 6.767-.772-2.511zm32.24 6.75l-10.908 3.143-.726-2.525 10.909-3.142.725 2.524zm-30.198-.103l27.584-8.493.771 2.51-27.584 8.494-.771-2.511zm18.469 11.773l-13.571 4.179-.771-2.511 13.571-4.179.771 2.511zm-16.61-5.717l14.899-4.587.771 2.511-14.898 4.587-.772-2.511zM51.151 2.973L3.285 17.711l1.077 3.505-.014.004c.009.023.027.039.034.063.32 1.04.762 2.464 1.244 4.018.58 1.867 1.218 3.921 1.771 5.722a1.314 1.314 0 0 1-1.254 1.7c-.561 0-1.08-.363-1.254-.927-.552-1.799-1.189-3.85-1.768-5.715-.483-1.557-.926-2.984-1.247-4.026-.007-.024-.001-.047-.007-.071l-.013.004-1.847-6.015L50.483.43l-.116-.443.48.331.271-.083.106.343 15.23 10.509-12.248 3.525-3.055-11.639zm4.91 8.371l4.335-1.247-5.694-3.929 1.359 5.176zM7.11 34.633a1.312 1.312 0 0 1 1.621.815c.044.092.084.194.119.309a1.313 1.313 0 0 1-1.254 1.699c-.543 0-1.046-.34-1.236-.874a2.261 2.261 0 0 1-.119-.307 1.314 1.314 0 0 1 .869-1.642z" fill-rule="evenodd" class="path-iu9tx4ec9"></path></svg>