<svg xmlns="http://www.w3.org/2000/svg" preserveAspectRatio="xMidYMid" width="86" height="70" viewBox="0 0 86 70" data-prefix="ind8iq7ep"><path d="M76.525 31.771a1.28 1.28 0 0 1-.901.396h-.025c-.332 0-.651-.129-.891-.36l-2.048-1.981c-.063.305-.126.638-.187.971-.337 1.828-.757 4.103-1.923 5.676-1.18 1.592-4.457 4.462-4.596 4.583l-.082.071c.341.319.625.593.765.758 1.616 1.908 3.14 4.016 2.487 6.947-.092.412-1.28 2.992-2.855 3.968.127 1.479-.434 3.029-1.646 4.3-1.032 1.084-2.322 1.505-3.487 1.583l-.248.305c-.143 1.263-.872 2.566-2.176 3.641-1.187.976-2.499 1.469-3.69 1.469h-.038c-.265 1.726-1.59 3.182-2.647 3.906-.88.604-2.116.868-3.393.868-1.764 0-3.608-.504-4.707-1.318-1.209-.896-3.973-3.217-4.09-3.315l-.381-.32a4.796 4.796 0 0 1-3.401 1.404 4.795 4.795 0 0 1-3.417-1.417 4.8 4.8 0 0 1-1.415-3.42c0-.372.053-.734.134-1.087a4.866 4.866 0 0 1-1.088.135 4.796 4.796 0 0 1-3.417-1.418 4.796 4.796 0 0 1-1.415-3.419c0-.168.031-.329.048-.494-.165.017-.327.049-.495.049a4.794 4.794 0 0 1-3.416-1.418 4.801 4.801 0 0 1-1.416-3.419 4.872 4.872 0 0 1 .265-1.519 4.783 4.783 0 0 1-1.519.266 4.796 4.796 0 0 1-3.417-1.418 4.796 4.796 0 0 1-1.415-3.419c0-1.292.503-2.505 1.416-3.419l1.071-1.071-.903-2.427-1.653 2.15a1.284 1.284 0 0 1-1.719.29L0 30.588l1.405-2.145 11.601 7.608 1.905-2.477-.087-.234.374-.139 14.068-18.29-10.533-7.444 1.479-2.095 11.624 8.214a1.282 1.282 0 0 1 .276 1.83l-1.286 1.672c1.884.248 4.716.763 6.275 1.736 5.417-5.075 6.958-5.098 7.479-5.102 2.187-.016 6.153-.542 7.646-.74l.365-.048c.411-.053 1.096-.609 1.512-1.051l-.638-.617a1.283 1.283 0 0 1-.108-1.727l7.687-9.546 1.996 1.609-6.951 8.634 19.475 18.83 7.82-8.179 1.853 1.773-8.712 9.111zM34.761 62.092c.429.43.998.666 1.604.666.605 0 1.174-.236 1.602-.664l2.01-2.01c.43-.429.666-.999.666-1.604a2.253 2.253 0 0 0-.663-1.605 2.253 2.253 0 0 0-1.606-.667c-.606 0-1.175.236-1.603.664l-2.01 2.01a2.26 2.26 0 0 0-.665 1.605c0 .606.236 1.176.665 1.605zm-5.787-5.79c.43.43.999.666 1.605.666.605 0 1.174-.236 1.602-.664l2.01-2.01c.429-.428.666-.998.666-1.604 0-.606-.236-1.176-.664-1.605a2.248 2.248 0 0 0-1.605-.666 2.25 2.25 0 0 0-1.603.663l-2.01 2.01a2.264 2.264 0 0 0-.665 1.606c0 .606.236 1.176.664 1.604zm-5.278-5.281c.43.429.999.666 1.604.666.606 0 1.175-.236 1.603-.664l2.01-2.01c.429-.429.666-.999.666-1.605s-.236-1.176-.664-1.605a2.254 2.254 0 0 0-1.605-.666 2.25 2.25 0 0 0-1.603.664l-2.01 2.01a2.252 2.252 0 0 0-.665 1.605c0 .606.236 1.176.664 1.605zM17.61 44.93c.429.431.998.667 1.604.667.605 0 1.174-.236 1.602-.664l2.011-2.01a2.26 2.26 0 0 0 .666-1.605 2.26 2.26 0 0 0-.664-1.605 2.252 2.252 0 0 0-1.606-.666c-.606 0-1.175.236-1.603.664l-2.01 2.01a2.26 2.26 0 0 0-.665 1.605c0 .606.236 1.176.665 1.604zm11.387-25.464L17.809 34.011l1.14 3.063a4.79 4.79 0 0 1 2.274-.593 4.8 4.8 0 0 1 3.42 1.42 4.804 4.804 0 0 1 1.413 3.418c0 .527-.104 1.033-.265 1.518a4.81 4.81 0 0 1 1.519-.265c1.292 0 2.507.504 3.419 1.419a4.8 4.8 0 0 1 1.413 3.419c0 .167-.031.328-.048.492.165-.017.326-.049.494-.049a4.8 4.8 0 0 1 3.42 1.42 4.808 4.808 0 0 1 1.413 3.418c0 .372-.054.733-.135 1.087a4.809 4.809 0 0 1 1.088-.135 4.8 4.8 0 0 1 3.42 1.419 4.802 4.802 0 0 1 1.413 3.419 4.794 4.794 0 0 1-1.419 3.418l-.2.201.208.174c.028.024 2.821 2.369 3.967 3.218 1.204.892 4.078 1.114 5.125.396.684-.469 1.441-1.37 1.563-2.186.051-.34-.016-.604-.218-.858a1.263 1.263 0 0 1-.208-.404l-7.403-6.204 1.647-1.967 8.66 7.259c.653.043 1.493-.336 2.154-.881.786-.646 1.717-1.911 1.063-2.747-.053-.068-.08-.146-.118-.221l-8.229-6.72 1.621-1.988 8.71 7.114c.61.11 1.811.113 2.637-.755.873-.916 1.16-1.972.82-2.882-.04-.05-.076-.116-.115-.173l-8.079-6.449 1.599-2.005 7.568 6.041c.283.057.547.208.74.443.51-.561 1.169-1.63 1.33-2.07.344-1.614-.389-2.85-1.949-4.691-1.074-1.267-11.666-9.943-19.025-15.873l-6.313 5.214-.415.343c-1.197.989-2.846 1.797-4.521 1.797-1.084 0-2.178-.338-3.168-1.182-1.591-1.358-2.756-4.041-1.557-6.725.543-1.218 3.039-3.986 5.471-6.412-1.467-.613-4.252-1.075-6.156-1.24zm26.954-5.797c-.497.524-1.687 1.634-3.029 1.809l-.359.048c-1.676.221-5.595.741-7.944.761-.598.097-2.875 1.593-6.749 5.342-3.323 3.218-5.567 5.906-5.848 6.535-.661 1.48-.007 2.97.88 3.727 1.695 1.445 3.958-.281 4.394-.641l.415-.343 7.02-5.798.72-.896.184.149 1.284-1.061.988-.816 1.633 1.978-.989.817-.877.724c3.332 2.688 11.815 9.56 16.267 13.405l.327-.286c.889-.776 3.38-3.04 4.223-4.178.812-1.095 1.172-3.046 1.461-4.613.182-.991.34-1.846.602-2.456l.026-.061-14.629-14.146z" fill-rule="evenodd" class="path-iceqql18s"></path></svg>