<svg xmlns="http://www.w3.org/2000/svg" width="13" height="15" viewBox="0 0 13 15" data-prefix="iquh4mhpv"><path d="M6.5 8.631a.775.775 0 1 0 0-1.55.93.93 0 1 1 .94-.93.79.79 0 0 0 1.58 0 2.52 2.52 0 1 0-2.52 2.48zm-5.94.413l4.76 5.225a1.3 1.3 0 0 0 1.18.737 1.32 1.32 0 0 0 1.18-.738l4.76-5.218a.415.415 0 0 1 .04-.1 6.318 6.318 0 0 0 .53-2.534 6.511 6.511 0 0 0-13.02 0A6.223 6.223 0 0 0 .5 8.897a.467.467 0 0 0 .06.147zM6.5 1.55a4.869 4.869 0 0 1 4.51 6.848.034.034 0 0 0-.01.029l-4.5 4.678L2 8.425s0-.007-.01-.008a.133.133 0 0 0-.03-.081 4.837 4.837 0 0 1-.39-1.916A4.9 4.9 0 0 1 6.5 1.55z" fill="#e2eff9" class="path-im98oyppr"></path></svg>