<svg xmlns="http://www.w3.org/2000/svg" preserveAspectRatio="xMidYMid" width="64" height="79" viewBox="0 0 64 79" data-prefix="i85kcjg3s"><path d="M25.13 63.188l1.233-2.373c4.033 2.08 2.751 4.902 1.904 6.77-.06.13-.12.263-.179.397-1.143 2.565-3.055 5.392-3.136 5.511l-2.222-1.497c.018-.027 1.861-2.753 2.906-5.098l.186-.414c.36-.791.699-1.539.657-2.019-.035-.404-.489-.833-1.349-1.277zM63.507 8.842a1.338 1.338 0 0 1-1.458 1.208 1.338 1.338 0 0 1-1.214-1.452c.153-1.662.24-3.377-.061-4.948L50.422 13.698v.061h-.063l-3.943 3.828h11.758c.142-.281.447-.906.803-1.778a1.345 1.345 0 0 1 1.749-.733 1.335 1.335 0 0 1 .736 1.741c-.548 1.34-.993 2.168-1.011 2.202a1.326 1.326 0 0 1-.276.343v.897H43.663l-3.654 3.546 14.499-.125h.012c.736 0 1.335.591 1.341 1.325a1.338 1.338 0 0 1-1.329 1.347l-16.783.145h-.011c-.148 0-.284-.039-.416-.083l-3.066 2.976 12.915.29.868-.865a1.345 1.345 0 0 1 1.897 0 1.331 1.331 0 0 1 0 1.889l-1.016 1.013c-.048.079-.095.159-.16.228-.339.36-8.398 8.803-16.226 8.908l-.15.001c-2.683 0-5.021-.976-6.953-2.899L18.39 44.79h6.829c.741 0 1.342.598 1.342 1.336v6.433c0 .738-.601 1.336-1.342 1.336h-.492c.062.455.354.916.902 1.374 1.095.915 2.244 1.239 3.461 1.582 1.759.496 3.753 1.058 5.218 3.472 1.687 2.638 1.114 6.355-1.703 11.05-1.962 3.27-4.315 5.835-4.414 5.943a1.341 1.341 0 0 1-.988.432h-.021l-9.985-.16c-.016.001-.03.009-.047.009h-.027c-.075-.002-7.471-.151-8.857-.151-.52 0-1.045-.146-2.639-1.978a32.006 32.006 0 0 1-2.856-3.867 1.333 1.333 0 0 1 .426-1.841 1.344 1.344 0 0 1 1.848.425c1.399 2.23 2.99 4.031 3.614 4.591 1.539.014 5.484.089 7.42.127v-.006l10.532.169c2.461-2.822 7.604-9.941 5.429-13.316l-.02-.033c-.92-1.522-2.069-1.846-3.66-2.294-1.369-.386-2.92-.824-4.455-2.107-1.442-1.205-1.841-2.462-1.881-3.421h-8.218c-.313 3.03-3.228 4.018-5.599 4.819-3.161 1.069-5.109 1.914-5.503 4.634a4.24 4.24 0 0 0-.034.784 1.34 1.34 0 0 1-1.281 1.394l-.06.001c-.714 0-1.307-.56-1.339-1.278-.02-.443 0-.875.059-1.282.657-4.54 4.494-5.836 7.296-6.783 2.333-.788 3.47-1.282 3.74-2.307a1.33 1.33 0 0 1-1.255-1.318v-6.433c0-.738.601-1.336 1.342-1.336h3.374l9.394-9.118c-.682-1.671-.869-3.758-.517-6.189.484-3.351 1.926-7.113 4.168-10.879 3.13-5.255 7.456-9.819 12.346-13.07v-.209h.334c.609-.396 1.222-.78 1.847-1.134C48.417.628 55.234-.695 61.83.367c.461.074.849.38 1.027.81 1.023 2.474.872 5.253.65 7.665zm-50.994 38.62v3.761h11.365v-3.761H12.513zm19.871-9.28l.109-.001c4.415-.057 9.206-3.519 11.973-5.889l-12.747-.287c-.046-.001-.084-.023-.128-.028l-4.235 4.11c1.423 1.404 3.068 2.095 5.028 2.095zm7.553-29.338c-3.89 2.855-7.354 6.615-10.038 11.123-2.036 3.418-3.393 6.933-3.821 9.897-.204 1.407-.193 2.661.02 3.713l13.839-13.432V8.844zm7.802-4.281a32.102 32.102 0 0 0-5.12 2.486v10.492l5.12-4.97V4.563zm2.683-.866v6.27l7.47-7.25c-2.496-.039-5.005.307-7.47.98zM2.257 66.373h.014c.578 0 1.073.366 1.26.879l.007.015c.09.179.14.381.14.595v.002a1.338 1.338 0 0 1-1.34 1.336h-.001c-.95 0-1.402-.882-1.408-1.478v-.014c0-.731.592-1.328 1.328-1.335zM61.121 13.91a1.335 1.335 0 0 1-.955-1.632c.041-.155.081-.312.12-.471a1.342 1.342 0 0 1 2.606.634c-.043.174-.087.347-.132.518a1.341 1.341 0 0 1-1.639.951z" fill-rule="evenodd" class="path-ihdrbdr1d"></path></svg>