<svg xmlns="http://www.w3.org/2000/svg" preserveAspectRatio="xMidYMid" width="103.719" height="119.031"
  viewBox="0 0 103.719 119.031" data-prefix="iqi8qbo22">
  <path
    d="M99.137 30.104a4.392 4.392 0 0 0 .948-6.129 4.369 4.369 0 0 0-6.115-.951 4.392 4.392 0 0 0-.948 6.129 4.369 4.369 0 0 0 6.115.951zm-12.362 9.062a4.393 4.393 0 0 0 .949-6.13 4.369 4.369 0 0 0-6.115-.95 4.393 4.393 0 0 0-.949 6.129 4.37 4.37 0 0 0 6.115.951zm-12.361 9.061a4.392 4.392 0 0 0 .949-6.129 4.37 4.37 0 0 0-6.115-.95 4.393 4.393 0 0 0-.949 6.129 4.369 4.369 0 0 0 6.115.95zm20.461 57.945c-.023-.098-.063-.193-.095-.289-.034-.098-.061-.197-.103-.292-.037-.079-.087-.153-.131-.23-.059-.105-.114-.212-.186-.312-.008-.01-.013-.023-.021-.034-.055-.074-.122-.132-.182-.2-.062-.069-.114-.145-.183-.209L80.152 91.59a3.122 3.122 0 0 0-4.419.138 3.139 3.139 0 0 0 .138 4.429l11.04 10.395c-5.941 4.022-11.083 6.211-14.691 6.211h-.002c-2.816 0-4.756-1.141-4.759-1.141a3.217 3.217 0 0 0-.24-.142c-12.614-6.752-27.256-19.477-37.3-32.419l-1.035-1.333c-10.06-12.953-18.772-30.3-22.194-44.193a3.218 3.218 0 0 0-.054-.192c-.033-.106-.798-2.629-.053-4.689 1.366-3.779 3.9-7.831 7.37-11.867l8.33 13.511a3.12 3.12 0 0 0 4.302 1.018 3.137 3.137 0 0 0 1.015-4.312L17.286 10.275a3.09 3.09 0 0 0-.601-.692c-.042-.046-.074-.098-.119-.142a3.117 3.117 0 0 0-4.419.046C6.582 15.183 2.733 20.913.705 26.519c-1.33 3.679-.421 7.412-.063 8.601 3.63 14.665 12.773 32.89 23.308 46.455l1.034 1.333c10.522 13.556 25.909 26.917 39.219 34.06.731.436 3.741 2.06 8.013 2.061h.003c5.714 0 12.943-3.24 21.485-9.63.085-.063.152-.139.228-.209.059-.054.125-.097.18-.156.01-.01.016-.022.025-.032.084-.091.151-.192.222-.291.051-.07.108-.137.152-.21.058-.095.099-.197.145-.297.04-.086.086-.168.118-.256.035-.097.053-.198.078-.298.024-.095.055-.188.069-.285.017-.107.016-.216.021-.325.005-.091.017-.18.013-.271-.004-.111-.026-.222-.042-.333-.013-.088-.018-.177-.038-.264zm5.018-17.705c-3.308-4.137-14.49-13.568-17.344-15.899-2.426-1.982-4.71-2.183-6.199-2.004-3.123.377-5.22 2.595-6.174 3.862-.915 1.151-2.534 3.165-3.104 3.834-3.761 4.423-6.381 2.95-8.141 1.832-4.533-3.726-9.182-9.348-13.538-14.893a2.897 2.897 0 0 0-.167-.221l-.027-.038a3.159 3.159 0 0 0-.153-.193c-4.304-5.605-8.615-11.516-11.112-16.853-.656-1.974-1.456-4.867 3.755-7.448.087-.041.226-.097.403-.173 1.525-.645 5.094-2.155 7.431-4.492 2.751-2.753 3.414-6.418 1.772-9.803-3.197-6.596-9.814-17.085-13.151-21.7C30.352-.966 24.79-.8 21.236 1.566l3.449 5.225c1.094-.729 2.747-1.119 4.397 1.163 3.127 4.326 9.587 14.564 12.591 20.762.35.722.524 1.54-.566 2.631-1.474 1.474-4.359 2.695-5.445 3.154-.339.143-.589.253-.726.321-4.684 2.319-9.679 6.845-6.873 15.231.037.108.079.216.127.321 2.761 5.97 7.393 12.327 11.989 18.307l.074.093c.039.056.079.111.121.164 4.655 5.931 9.665 11.989 14.754 16.13.093.076.191.147.292.211 7.446 4.749 13.034 1.014 16.409-2.954.68-.799 2.473-3.036 3.233-3.991a4.41 4.41 0 0 0 .083-.108c.608-.806 1.374-1.372 1.953-1.442.413-.044.92.166 1.501.64 4.439 3.627 14.151 12.038 16.485 15.048.081.106.17.206.264.3 2.991 2.98 2.059 4.765 1.753 5.352a3.136 3.136 0 0 0 1.321 4.228 3.123 3.123 0 0 0 4.218-1.324c1.006-1.927 2.735-6.987-2.747-12.561zm-37.84-31.178a4.393 4.393 0 0 0 .949-6.129 4.37 4.37 0 0 0-6.115-.951 4.392 4.392 0 0 0-.949 6.129 4.368 4.368 0 0 0 6.115.951z"
    fill-rule="evenodd" class="path-ii8g1tytv"></path>
</svg>