<svg xmlns="http://www.w3.org/2000/svg" preserveAspectRatio="xMidYMid" width="59" height="58" viewBox="0 0 59 58" data-prefix="iq1yvo3dh"><path d="M57 17v-2h2v2h-2zm-1-7h2v2h-2v-2zm-3 15h2v2h-2v-2zm0-20h2v2h-2V5zm-5 23h2v2h-2v-2zm0-26h2v2h-2V2zm-5 27h2v2h-2v-2zm0-28h2v2h-2V1zm-3.056 31.33C39.915 32.414 37 40.795 37 44v11h-2V44c0-3.427 2.742-11.426 3.035-12.27.434-2.042.965-4.565.965-6.601 0-2.252-.48-3.578-1.556-4.298l-4.048-3.03A6.96 6.96 0 0 1 29 21.707V32h-2V19.5c0-.827-.673-1.5-1.5-1.5a1.49 1.49 0 0 0-1.472 1.251l-1.84 11.901A9.91 9.91 0 0 0 22 33.055c0 1.874.255 3.261.803 4.365l.66 1.332C24 39.835 24 41.087 24 42v13h-2V42c0-.928-.024-1.746-.329-2.36l-.66-1.333C20.321 36.919 20 35.249 20 33.055c0-.751.073-1.507.219-2.248l.928-6.005-.172.172A3.47 3.47 0 0 1 18.5 26c-1.93 0-3.5-1.57-3.5-3.5 0-.935.364-1.814 1.025-2.475l4.077-4.063C20.057 15.643 20 15.326 20 15c0-3.86 3.141-7 7-7s7 3.14 7 7c0 .241-.039.472-.063.707l4.662 3.492C40.747 20.635 41 23.272 41 25.129c0 2.266-.566 4.934-1.022 7.079l-.034.122zM17.438 21.44A1.502 1.502 0 0 0 18.5 24c.401 0 .777-.156 1.059-.439l2.105-2.103.261-1.69a7.218 7.218 0 0 1-1.159-1.645l-3.328 3.317zM27 10c-2.757 0-5 2.243-5 5 0 .874.254 1.712.678 2.458A3.464 3.464 0 0 1 25.5 16c1.93 0 3.5 1.57 3.5 3.5v.068A4.971 4.971 0 0 0 32 15c0-2.757-2.243-5-5-5zm11-8h2v2h-2V2zm-5 3h2v2h-2V5zM12 6h2v2h-2V6zm-2-4h2v2h-2V2zM6 54h2v2H6v-2zm0-10h2v2H6v-2zm0-32h2v2H6v-2zM6 0h2v2H6V0zm0 51H4v-2h2v2zM2 10h2v2H2v-2zm0-8h2v2H2V2zm0 6H0V6h2v2zm10 4h-2v-2h2v2zm1 32h-2v-2h2v2zm0 14h-2v-2h2v2zm5-12h-2v-2h2v2zm0 3h2v2h-2v-2zm0 7h-2v-2h2v2zm40-34h-2v-2h2v2z" fill-rule="evenodd" class="path-imd2xbggo"></path></svg>