<svg xmlns="http://www.w3.org/2000/svg" preserveAspectRatio="xMidYMid" width="71" height="73" viewBox="0 0 71 73" data-prefix="igoq89eed"><path d="M70.001 27.463l-2.588 1.905.719-.016.117 5.5c.009.451-.202.877-.564 1.141L55.308 45a1.362 1.362 0 0 1-1.24.186l-2.859-.984.217-.639c-6.168 4.479-12.011 8.713-13.159 9.516-1.813 1.27-4.121 1.46-5.336 1.46-.755 0-1.874-.066-2.773-.385L28.4 55.361l-1.536-2.266 1.72-1.181c-.001-.99.361-2.117.749-3.029.364-.858 1.392-2.98 3.059-4.145 2.12-1.484 28.925-20.929 29.195-21.126a1.357 1.357 0 0 1 1.901.309l.585.814 3.379-2.352c.351-.245.795-.31 1.201-.176.405.135.725.452.863.858l.969 2.843a1.377 1.377 0 0 1-.484 1.553zM33.947 46.992c-1.399.979-2.477 3.522-2.63 4.647.349.078.904.157 1.614.157 1.523 0 2.901-.353 3.78-.969.838-.586 4.311-3.098 8.586-6.198l-2.753-3.834c-4.352 3.149-7.866 5.686-8.597 6.197zm28.13-20.352a25937.04 25937.04 0 0 1-17.32 12.554l2.751 3.83c6.687-4.852 14.468-10.512 17.306-12.576l-2.737-3.808zm3.413 6.701a22107.33 22107.33 0 0 1-12.022 8.739l.814.281 11.226-8.169-.018-.851zm2.032-7.67l-1.85 1.289.136.19 1.773-1.305-.059-.174zm-4.132-4.085a1.362 1.362 0 0 1-1.788.723 1.375 1.375 0 0 1-.718-1.8l.483-1.14-35.62-16.216a665.333 665.333 0 0 0-3.954 8.609 1.358 1.358 0 0 1-1.803.685 1.376 1.376 0 0 1-.68-1.815A674.979 674.979 0 0 1 23.856.759a1.358 1.358 0 0 1 1.793-.662l38.058 17.326c.675.307.982 1.102.691 1.788l-1.008 2.375zm-43.436-5.719l-.029.063a.566.566 0 0 1-.016.036l-.003.009a.022.022 0 0 1-.003.005l-.049.11a1.363 1.363 0 0 1-1.804.685 1.375 1.375 0 0 1-.68-1.815l.029-.063.017-.04.002-.004.001-.003.052-.114a1.36 1.36 0 0 1 1.803-.685c.686.313.99 1.125.68 1.816zm-7.69 32.022l1.112-2.505 12.957 5.827-1.112 2.505-12.957-5.827zm2.946-6.636l1.17-2.477 12.162 5.813-1.169 2.478-12.163-5.814zm2.826-6.271l1.159-2.484 15.285 7.224-1.158 2.483-15.286-7.223zM52.649 24.87l-1.123 2.499-24.944-11.355 1.123-2.5L52.649 24.87zm-31.771 3.889l1.083-2.518 19.668 8.566-1.082 2.518-19.669-8.566zm-2.61-8.568C12.569 32.872 5.27 48.866 3.193 53.412l35.576 16.196 10.46-22.811a1.36 1.36 0 0 1 1.809-.671c.683.317.981 1.133.666 1.82L40.677 71.994a1.363 1.363 0 0 1-1.799.675L.82 55.343a1.378 1.378 0 0 1-.676-1.824c.089-.194 8.964-19.602 15.64-34.459a1.36 1.36 0 0 1 1.804-.684c.685.312.99 1.125.68 1.815z" fill-rule="evenodd" class="path-i4pzit9gp"></path></svg>