<svg xmlns="http://www.w3.org/2000/svg" width="16.969" height="15" viewBox="0 0 16.969 15" data-prefix="imkqrd4f3"><path data-name="4Telegram.svg" d="M15.845.128L.624 6.147c-.832.251-.806 1.11-.19 1.316l3.814 1.244 1.459 4.672c.177.511.322.7.625.708a1 1 0 0 0 .771-.422c.387-.379.977-.977 1.909-1.923l3.966 3.061c.73.42 1.257.2 1.439-.708l2.487-12.849C17.171.13 16.543-.2 15.845.128zm-11 8.293l8.67-5.682c.428-.3.562.035.369.266l-7.2 6.76-.369 3.374z" fill-rule="evenodd" class="path-ia2hb7vh0"></path></svg>