<svg xmlns="http://www.w3.org/2000/svg" width="15.969" height="10" viewBox="0 0 15.969 10" data-prefix="i487npo8n"><path data-name="4Vk.svg" d="M7.7 0a4.848 4.848 0 0 0-2 .218c-.274.144-.484.47-.356.486a1.069 1.069 0 0 1 .713.392 2.7 2.7 0 0 1 .237 1.178s.137 2.25-.334 2.533c-.324.192-.766-.2-1.725-1.988A17.535 17.535 0 0 1 3.377.882a.74.74 0 0 0-.2-.287.976.976 0 0 0-.37-.164L.52.446A.747.747 0 0 0 .055.62a.565.565 0 0 0-.009.44s1.789 4.543 3.816 6.832a5.255 5.255 0 0 0 3.966 1.962h.958a.777.777 0 0 0 .433-.2.8.8 0 0 0 .133-.457s-.019-1.391.575-1.6 1.337 1.347 2.136 1.941a1.434 1.434 0 0 0 1.068.352l2.136-.035a.647.647 0 0 0 .584-1.029 7.576 7.576 0 0 0-1.583-1.993c-1.343-1.347-1.164-1.129.451-3.462.981-1.422 1.374-2.29 1.251-2.666a.885.885 0 0 0-.84-.258l-2.406.015a.514.514 0 0 0-.31.06.719.719 0 0 0-.21.282 16.111 16.111 0 0 1-.89 2.036c-1.068 1.971-1.5 2.081-1.674 1.957-.407-.287-.306-1.15-.306-1.759 0-1.917.27-2.71-.52-2.918A3.738 3.738 0 0 0 7.7 0zm0 0" fill-rule="evenodd" class="path-ih9ax8r1s"></path></svg>